<!DOCTYPE svg PUBLIC "-//W3C//DTD SVG 1.1//EN" "http://www.w3.org/Graphics/SVG/1.1/DTD/svg11.dtd">
<!-- Uploaded to: SVG Repo, www.svgrepo.com, Transformed by: SVG Repo Mixer Tools -->
<svg width="800px" height="800px" viewBox="0 0 1024 1024" class="icon" version="1.1" xmlns="http://www.w3.org/2000/svg" fill="#000000">
<g id="SVGRepo_bgCarrier" stroke-width="0"/>
<g id="SVGRepo_tracerCarrier" stroke-linecap="round" stroke-linejoin="round"/>
<g id="SVGRepo_iconCarrier">
<path d="M742.74 703.929c35.72-110.513-53.44-174.024-96.189-186.989-16.707-5.067-29.572-17.931-34.639-34.639-12.965-42.749-82.941-128.256-193.454-92.537-152.915 49.424-187.328 220.375-137.433 299.931 30.255 48.241 81.78 65.472 90.449 64.806a2.69 2.69 0 0 1 2.877 2.877c-0.667 8.67 12.622 61.388 55.859 86.64 81.092 47.359 263.106 12.826 312.53-140.089z" fill="#B12800"/>
<path d="M514.096 876.344c-34.023 0-65.661-7.208-90.188-21.533-39.348-22.98-57.271-67.147-61.215-88.936-9.565-2.22-22.35-7.534-34.602-14.614-16.604-9.595-40.086-26.912-57.655-54.924-13.488-21.507-21.431-48.96-22.969-79.392-1.539-30.452 3.44-62.469 14.401-92.588 11.865-32.606 30.751-62.61 54.614-86.767 26.964-27.296 59.98-47.389 98.132-59.72 45-14.544 89.278-11.516 128.05 8.76 43.52 22.759 72.604 63.666 81.211 92.042a39.377 39.377 0 0 0 26.305 26.305c23.817 7.224 71.006 32.607 96.797 81.926 19.161 36.641 21.738 77.308 7.658 120.87-22.61 69.954-74.348 123.482-145.684 150.724-31.214 11.92-64.015 17.847-94.855 17.847zM386.828 758.141c0.123 8.379 13.226 53.787 49.687 75.082 39.856 23.276 105.566 24.049 163.519 1.919 64.121-24.486 110.578-72.45 130.812-135.058 11.94-36.939 9.914-71.122-6.023-101.596-21.999-42.066-63.191-63.913-81.898-69.587a64.33 64.33 0 0 1-42.973-42.973c-5.959-19.648-29.219-56.407-68.872-77.144-33.158-17.34-69.755-19.738-108.775-7.126-87.938 28.422-123.545 94.431-136.943 131.249-19.609 53.886-17.154 112.822 6.255 150.146 27.803 44.33 73.469 58.461 79.307 58.958a15.18 15.18 0 0 1 11.484 4.428 15.17 15.17 0 0 1 4.42 11.702z" fill="#300604"/>
<path d="M650.657 570.116c-8.156 0-35.215-2.3-63.122-30.206-32.167-32.167-33.807-66.541-33.861-67.989l9.993-0.373 9.99-0.43c0.057 1.144 1.67 28.299 28.021 54.649 25.729 25.73 49.377 24.364 49.607 24.345l1.811 19.918c-0.195 0.018-1.038 0.086-2.439 0.086z" fill="#300604"/>
<path d="M603.817 541.289l-18.422-16.9c93.045-101.427 62.935-189.373 62.619-190.249l23.527-8.456c0.387 1.077 9.433 26.833 5.294 66.428-3.743 35.824-19.451 90.785-73.018 149.177z" fill="#300604"/>
<path d="M652.823 457.005s151.122-109.389 214.985-10.117c0 0-63.231 101.17-214.985 10.117z" fill="#ED8F27"/>
<path d="M769.298 505.007c-6.565 0-13.259-0.414-20.071-1.243-31.558-3.842-65.724-16.689-101.549-38.184l-12.989-7.794 12.271-8.882c3.703-2.681 91.535-65.49 164.845-51.677 27.145 5.116 48.816 20.004 64.414 44.25l3.431 5.333-3.36 5.377c-0.717 1.146-17.97 28.235-55.352 43.188-16.026 6.411-33.33 9.632-51.64 9.632z m-97.368-48.611c28.242 15.265 54.997 24.506 79.714 27.515 22.439 2.731 43.253 0.342 61.865-7.104 22.21-8.884 35.863-22.722 41.996-30.131-12.167-16.316-27.735-26.086-47.405-29.793-33.518-6.319-72.19 6.999-98.731 19.282-15.316 7.086-28.403 14.625-37.439 20.231zM628.618 762.959l-14.582-20.307c36.51-26.219 54.934-55.845 54.759-88.057-0.132-24.178-11.121-41.313-11.232-41.484l20.836-13.814c0.604 0.904 14.776 22.513 15.378 53.686 0.547 28.431-10.312 70.59-65.159 109.976zM556.776 801.726a53.01 53.01 0 0 1-5.871-0.326l2.779-24.846c16.297 1.825 30.114-11.507 30.252-11.642l17.665 17.69c-0.831 0.836-19.356 19.124-44.825 19.124zM445.343 145.093h25v184.818h-25zM582.106 237.502h25v125.78h-25zM345.189 270.284h25v245.553h-25zM177.076 504.671h25v219.967h-25zM177.076 338.691h25v4.024h-25zM177.076 342.715h25v20.567h-25zM177.076 394.962h25v20.567h-25zM177.076 447.209h25v20.567h-25z" fill="#300604"/>
</g>
</svg>